<svg width="13" height="13" viewBox="0 0 13 13" fill="none" xmlns="http://www.w3.org/2000/svg">
<path d="M6.128 3.168C6.128 3.59467 6.05067 3.984 5.896 4.336C5.74133 4.688 5.536 4.992 5.28 5.248C5.024 5.49867 4.72533 5.69333 4.384 5.832C4.048 5.97067 3.696 6.04 3.328 6.04C2.92267 6.04 2.54933 5.97067 2.208 5.832C1.872 5.69333 1.57867 5.49867 1.328 5.248C1.08267 4.992 0.890667 4.688 0.752 4.336C0.613333 3.984 0.544 3.59467 0.544 3.168C0.544 2.72533 0.613333 2.32533 0.752 1.968C0.890667 1.60533 1.08267 1.296 1.328 1.04C1.57867 0.783999 1.872 0.586666 2.208 0.447999C2.54933 0.303999 2.92267 0.231999 3.328 0.231999C3.73333 0.231999 4.10667 0.303999 4.448 0.447999C4.79467 0.586666 5.09067 0.783999 5.336 1.04C5.58667 1.296 5.78133 1.60533 5.92 1.968C6.05867 2.32533 6.128 2.72533 6.128 3.168ZM4.224 3.168C4.224 2.896 4.2 2.672 4.152 2.496C4.10933 2.31467 4.048 2.17067 3.968 2.064C3.888 1.95733 3.792 1.88267 3.68 1.84C3.57333 1.79733 3.456 1.776 3.328 1.776C3.2 1.776 3.08267 1.79733 2.976 1.84C2.86933 1.88267 2.77867 1.95733 2.704 2.064C2.62933 2.17067 2.57067 2.31467 2.528 2.496C2.48533 2.672 2.464 2.896 2.464 3.168C2.464 3.424 2.48533 3.63733 2.528 3.808C2.57067 3.97867 2.62933 4.11467 2.704 4.216C2.77867 4.31733 2.86933 4.38933 2.976 4.432C3.08267 4.47467 3.2 4.496 3.328 4.496C3.456 4.496 3.57333 4.47467 3.68 4.432C3.792 4.38933 3.888 4.31733 3.968 4.216C4.048 4.11467 4.10933 3.97867 4.152 3.808C4.2 3.63733 4.224 3.424 4.224 3.168ZM9.792 0.712C9.872 0.621333 9.97067 0.538666 10.088 0.464C10.2053 0.384 10.368 0.344 10.576 0.344H12.384L3.6 11.648C3.52 11.7493 3.41867 11.8347 3.296 11.904C3.17867 11.968 3.03467 12 2.864 12H1.008L9.792 0.712ZM12.832 9.264C12.832 9.69067 12.7547 10.0827 12.6 10.44C12.4453 10.792 12.24 11.096 11.984 11.352C11.728 11.6027 11.4293 11.7973 11.088 11.936C10.752 12.0747 10.4 12.144 10.032 12.144C9.62667 12.144 9.25333 12.0747 8.912 11.936C8.576 11.7973 8.28267 11.6027 8.032 11.352C7.78667 11.096 7.59467 10.792 7.456 10.44C7.31733 10.0827 7.248 9.69067 7.248 9.264C7.248 8.82133 7.31733 8.42133 7.456 8.064C7.59467 7.70133 7.78667 7.392 8.032 7.136C8.28267 6.88 8.576 6.68267 8.912 6.544C9.25333 6.4 9.62667 6.328 10.032 6.328C10.4373 6.328 10.8107 6.4 11.152 6.544C11.4987 6.68267 11.7947 6.88 12.04 7.136C12.2907 7.392 12.4853 7.70133 12.624 8.064C12.7627 8.42133 12.832 8.82133 12.832 9.264ZM10.928 9.264C10.928 8.99733 10.904 8.776 10.856 8.6C10.8133 8.41867 10.752 8.27467 10.672 8.168C10.592 8.06133 10.496 7.98667 10.384 7.944C10.2773 7.90133 10.16 7.88 10.032 7.88C9.904 7.88 9.78667 7.90133 9.68 7.944C9.57333 7.98667 9.48267 8.06133 9.408 8.168C9.33333 8.27467 9.27467 8.41867 9.232 8.6C9.18933 8.776 9.168 8.99733 9.168 9.264C9.168 9.52 9.18933 9.73333 9.232 9.904C9.27467 10.0747 9.33333 10.2107 9.408 10.312C9.48267 10.4133 9.57333 10.4853 9.68 10.528C9.78667 10.5707 9.904 10.592 10.032 10.592C10.16 10.592 10.2773 10.5707 10.384 10.528C10.496 10.4853 10.592 10.4133 10.672 10.312C10.752 10.2107 10.8133 10.0747 10.856 9.904C10.904 9.73333 10.928 9.52 10.928 9.264Z" fill="#0B0E34"/>
</svg>
